<svg width="510" height="85" viewBox="0 0 510 85" fill="none" xmlns="http://www.w3.org/2000/svg">
<path opacity="0.8" d="M273.203 17.708L281.072 27.9647L288.975 17.708H292.368V39.3747H288.626V23.8453L281.105 33.6671L273.52 23.8138V39.3747H269.809V17.708H273.203ZM299.644 39.3747V17.708H303.388V33.274L316.047 17.708H319.283V39.3747H315.572V23.7823L302.88 39.3747H299.644ZM333.739 31.8694H330.283V39.3747H326.567V17.708H333.739C338.371 17.708 341.547 20.7898 341.547 24.7886C341.547 28.7876 338.371 31.8694 333.739 31.8694ZM333.689 21.0675H330.262V28.5099H333.689C336.355 28.5099 337.874 26.8955 337.874 24.7886C337.874 22.6817 336.376 21.0675 333.689 21.0675ZM269.782 69.8673V48.2007H273.525V63.7614L286.183 48.2007H289.42V69.8673H285.736V54.2698L273.019 69.8673H269.782ZM296.708 48.2007H300.45V57.1733H311.583V48.2007H315.301V69.8673H311.583V60.559H300.45V69.8673H296.735L296.708 48.2007ZM322.57 48.2007H330.345C334.372 48.2007 337.07 50.9155 337.07 54.1808C337.105 54.9911 336.934 55.7974 336.568 56.5287C336.204 57.2599 335.657 57.8935 334.978 58.3736C336.069 58.7565 337.007 59.4614 337.657 60.3877C338.307 61.3138 338.635 62.4141 338.595 63.5307C338.595 67.1 335.609 69.8777 331.327 69.8777H322.57V48.2007ZM330.155 57.3254C332.182 57.3254 333.425 56.0727 333.425 54.3956C333.425 52.8233 332.182 51.4659 330.155 51.4659H326.281V57.3254H330.155ZM331.244 66.602C333.653 66.602 334.988 65.3181 334.988 63.4889C334.988 61.6597 333.653 60.3757 331.244 60.3757H326.281V66.602H331.244ZM344.492 48.2007H358.042V51.6178H348.207V57.1733H356.134V60.5905H348.207V66.4502H358.042V69.8673H344.492V48.2007ZM362.217 59.0338C362.217 52.6868 367.232 47.8336 373.96 47.8336C379.41 47.8336 383.7 51.2193 384.811 55.4646H380.81C379.863 52.9908 377.132 51.2716 373.96 51.2716C369.263 51.2716 365.962 54.6575 365.962 59.0232C365.962 63.3891 369.263 66.7748 373.96 66.7748C377.132 66.7748 379.863 65.0662 380.81 62.582H384.811C383.721 66.8221 379.362 70.2129 373.96 70.2129C367.232 70.234 362.217 65.3806 362.217 59.0338ZM394.891 51.6178H388.351V48.2007H405.168V51.6178H398.629V69.8673H394.918L394.891 51.6178ZM410.444 69.8673V48.2007H414.186V63.7614L426.872 48.2007H430.108V69.8673H426.393V54.2698L413.68 69.8673H410.444ZM457.807 66.4502V74.3747H454.38V69.8673H437.374V48.2007H441.116V66.4502H451.208V48.2007H454.953V66.4502H457.807ZM463.432 69.8673V48.2007H467.198V63.7614L479.856 48.2007H483.093V69.8673H479.382V54.2698L466.652 69.8673H463.432ZM490.356 69.8671V48.2005H494.1V63.7614L506.763 48.2005H510V69.8671H506.284V54.2698L493.593 69.8671H490.356ZM495.212 41.7593H497.653C497.653 43.5937 498.743 44.7204 500.482 44.7204C502.218 44.7204 503.303 43.5937 503.303 41.7593H505.745C505.768 42.4382 505.647 43.1146 505.394 43.7482C505.139 44.3818 504.755 44.9599 504.264 45.4478C503.773 45.9359 503.184 46.3238 502.534 46.5889C501.884 46.8538 501.184 46.9904 500.478 46.9904C499.771 46.9904 499.073 46.8538 498.421 46.5889C497.772 46.3238 497.184 45.9359 496.693 45.4478C496.202 44.9599 495.818 44.3818 495.563 43.7482C495.308 43.1146 495.189 42.4382 495.212 41.7593Z" fill="#006DF0"/>
<path d="M133.563 38.9996C135.675 39.7348 137.625 40.8391 139.314 42.256C140.918 43.7383 142.226 45.487 143.175 47.4169C144.104 49.472 144.567 51.6915 144.536 53.9299C144.568 56.1433 144.104 58.3377 143.175 60.3656C142.234 62.3 140.9 64.0361 139.25 65.4725C137.6 66.9086 135.666 68.0165 133.563 68.7314C131.212 69.5581 128.725 69.9759 126.22 69.9647H99.7822V18.5987H139.914V28.5849H110.83V37.8434H126.214C128.716 37.8091 131.205 38.2005 133.563 38.9996ZM131.738 49.12C130.103 47.9579 128.099 47.3693 126.063 47.453H110.83V60.2676H126.063C128.098 60.3502 130.101 59.7636 131.738 58.6057C133.18 57.5219 133.86 56.0253 133.86 53.9041C133.86 51.783 133.18 50.2141 131.738 49.12ZM165.022 69.9647H154.45V18.5987H165.022V40.3774L183.819 18.5987H196.962L175.525 43.2675L201.444 69.9647H187.642L165.022 46.6687V69.9647ZM217.671 68.7314C211.006 66.1003 205.701 61.0558 202.913 54.699C201.478 51.3979 200.756 47.8537 200.791 44.2793C200.753 40.7783 201.442 37.3048 202.82 34.0607C204.198 30.8164 206.235 27.8659 208.815 25.3803C211.354 22.9658 214.362 21.0496 217.671 19.7394C221.249 18.3452 225.086 17.6554 228.952 17.7111C231.931 17.7022 234.894 18.1411 237.731 19.0117C240.476 19.925 243.075 21.2 245.452 22.7997C247.715 24.4336 249.705 26.3861 251.355 28.5902C253.033 30.8679 254.262 33.4173 254.989 36.1148H243.108C242.593 34.829 241.822 33.6501 240.841 32.6415C239.843 31.6145 238.694 30.7329 237.429 30.025C236.159 29.3488 234.813 28.8155 233.416 28.4353C231.96 28.0614 230.459 27.8671 228.952 27.8574C226.568 27.833 224.202 28.2501 221.984 29.0856C219.932 29.8964 218.079 31.1035 216.536 32.6312C215.041 34.14 213.859 35.9073 213.054 37.8385C212.223 39.8913 211.817 42.0788 211.861 44.2793C211.824 46.4809 212.234 48.6682 213.07 50.72C213.876 52.6512 215.056 54.4184 216.553 55.9272C218.077 57.4561 219.938 58.6423 222.001 59.4006C224.202 60.295 226.575 60.7381 228.966 60.701C230.476 60.6914 231.977 60.4972 233.432 60.1231C234.844 59.7492 236.194 59.1901 237.445 58.4612C238.721 57.8056 239.874 56.9489 240.851 55.9272C241.833 54.9188 242.603 53.7397 243.121 52.4541H255C254.273 55.1287 253.041 57.6542 251.366 59.9063C249.736 62.1266 247.742 64.0817 245.462 65.6968C243.121 67.3427 240.512 68.6134 237.741 69.459C234.917 70.3881 231.948 70.8524 228.962 70.8319C225.088 70.8656 221.247 70.1512 217.671 68.7314Z" fill="#006DF0"/>
<mask id="mask0_993_3977" style="mask-type:alpha" maskUnits="userSpaceOnUse" x="0" y="3" width="82" height="79">
<path d="M40.6522 81.4587C63.1038 81.4587 81.3043 64.0164 81.3043 42.5003C81.3043 20.9842 63.1038 3.54199 40.6522 3.54199C18.2006 3.54199 0 20.9842 0 42.5003C0 64.0164 18.2006 81.4587 40.6522 81.4587Z" fill="white"/>
</mask>
<g mask="url(#mask0_993_3977)">
<path d="M77.0037 62.0918C88.2521 42.9921 80.8831 18.5911 60.5445 7.59047C40.2062 -3.41013 14.5998 3.15544 3.35148 22.2551C-7.89687 41.3548 -0.527808 65.7557 19.8107 76.7564C40.1492 87.7571 65.7554 81.1914 77.0037 62.0918Z" fill="url(#paint0_linear_993_3977)"/>
</g>
<mask id="mask1_993_3977" style="mask-type:alpha" maskUnits="userSpaceOnUse" x="0" y="3" width="82" height="79">
<path d="M40.6522 81.4587C63.1038 81.4587 81.3043 64.0164 81.3043 42.5003C81.3043 20.9842 63.1038 3.54199 40.6522 3.54199C18.2006 3.54199 0 20.9842 0 42.5003C0 64.0164 18.2006 81.4587 40.6522 81.4587Z" fill="white"/>
</mask>
<g mask="url(#mask1_993_3977)">
<path d="M77.9598 58.1731C88.693 44.0517 83.221 22.7104 65.7377 10.5064C48.2545 -1.69777 25.3803 -0.143429 14.6471 13.9781C3.91387 28.0996 9.38587 49.4407 26.8691 61.6449C44.3524 73.8489 67.2265 72.2947 77.9598 58.1731Z" fill="url(#paint1_radial_993_3977)"/>
</g>
<mask id="mask2_993_3977" style="mask-type:alpha" maskUnits="userSpaceOnUse" x="0" y="3" width="82" height="79">
<path d="M40.6522 81.4587C63.1038 81.4587 81.3043 64.0164 81.3043 42.5003C81.3043 20.9842 63.1038 3.54199 40.6522 3.54199C18.2006 3.54199 0 20.9842 0 42.5003C0 64.0164 18.2006 81.4587 40.6522 81.4587Z" fill="white"/>
</mask>
<g mask="url(#mask2_993_3977)">
<path d="M78.2428 39.9853C83.5673 30.0909 74.9293 15.6679 58.9494 7.77053C42.9696 -0.126827 25.6991 1.4921 20.3748 11.3865C15.0505 21.2808 23.6885 35.704 39.6682 43.6014C55.648 51.4987 72.9185 49.8798 78.2428 39.9853Z" fill="url(#paint2_radial_993_3977)"/>
</g>
<defs>
<linearGradient id="paint0_linear_993_3977" x1="62.9195" y1="131.702" x2="40.9139" y2="-11.3752" gradientUnits="userSpaceOnUse">
<stop stop-color="#006DEF"/>
<stop offset="0.11" stop-color="#0570EF"/>
<stop offset="0.23" stop-color="#1277F0"/>
<stop offset="0.37" stop-color="#2884F2"/>
<stop offset="0.5" stop-color="#4896F4"/>
<stop offset="0.64" stop-color="#70ADF6"/>
<stop offset="0.78" stop-color="#A1C9F9"/>
<stop offset="0.92" stop-color="#DBEAFD"/>
<stop offset="1" stop-color="white"/>
</linearGradient>
<radialGradient id="paint1_radial_993_3977" cx="0" cy="0" r="1" gradientUnits="userSpaceOnUse" gradientTransform="translate(96.9796 54.7774) rotate(105.923) scale(60.0777 104.442)">
<stop offset="0.03" stop-color="#006DEF"/>
<stop offset="0.1" stop-color="#0671EF"/>
<stop offset="0.21" stop-color="#187BF0"/>
<stop offset="0.33" stop-color="#358BF2"/>
<stop offset="0.46" stop-color="#5EA3F4"/>
<stop offset="0.61" stop-color="#92C1F8"/>
<stop offset="0.76" stop-color="#D1E4FB"/>
<stop offset="0.83" stop-color="#F0F6FD"/>
</radialGradient>
<radialGradient id="paint2_radial_993_3977" cx="0" cy="0" r="1" gradientUnits="userSpaceOnUse" gradientTransform="translate(101.469 17.4625) rotate(47.0785) scale(86.9532 73.5709)">
<stop offset="0.06" stop-color="#006DEF"/>
<stop offset="0.09" stop-color="#0F75F0"/>
<stop offset="0.25" stop-color="#529CF4"/>
<stop offset="0.4" stop-color="#8BBCF7"/>
<stop offset="0.54" stop-color="#B6D5FA"/>
<stop offset="0.67" stop-color="#D6E7FB"/>
<stop offset="0.77" stop-color="#E9F2FD"/>
<stop offset="0.84" stop-color="#F0F6FD"/>
</radialGradient>
</defs>
</svg>